<?xml version="1.0" encoding="utf-8"?>
<!-- Generator: Adobe Illustrator 19.2.0, SVG Export Plug-In . SVG Version: 6.00 Build 0)  -->
<svg version="1.1" id="Layer_1" xmlns="http://www.w3.org/2000/svg" xmlns:xlink="http://www.w3.org/1999/xlink" x="0px" y="0px"
	 viewBox="0 0 355.7 236.7" style="enable-background:new 0 0 355.7 236.7;" xml:space="preserve">
<style type="text/css">
	.st0{opacity:0.3;}
</style>
<g class="st0">
	<g id="XMLID_1_">
		<g>
			<path d="M354,192.3h-10.2h-5.3c-0.5-2.6-1.2-4.4-2.3-5.4c-1.7-1.7-4.5-2.5-8.4-2.5c-3.9,0-6.5,0.6-8,1.9c-1.1,1-1.7,2.3-1.7,4
				c0,2.4,3.3,4.2,9.7,5.7c7.4,1.6,12.7,3,16,4.1c0.9,0.3,1.6,0.6,2.1,0.9c6.6,3.1,9.8,7.8,9.8,14.1c0,7.7-3.2,13.3-9.6,16.9
				c-0.8,0.4-1.6,0.8-2.4,1.2c-4.1,1.8-8.9,2.7-14.3,2.7c-8.1,0-14.6-1.4-19.6-4.3c-3.1-1.8-5.5-4.1-7-6.9c-1.6-2.8-2.3-6-2.3-9.7
				h16.3c0,2.8,1,5,3,6.5c2,1.6,5.4,2.4,10.1,2.4c3.6,0,6.3-0.8,8-2.2c1.4-1.2,2-2.5,2-4c0-2.5-3.2-4.5-9.6-5.9
				c-9.5-2-15.5-3.7-18-4.9c-6.5-3-9.7-7.8-9.7-14.3c0-5.2,1.7-9.7,5.1-13.3c4.3-4.6,10.7-6.8,19.2-6.8c7,0,12.6,1,16.9,3
				c0.4,0.2,0.7,0.3,1,0.5c3,1.7,5.3,3.9,6.9,6.6C353.2,185.3,354,188.5,354,192.3z"/>
			<path d="M345.7,154.4c0-0.3-0.1-0.6-0.2-0.8c-0.2-0.3-0.4-0.4-0.7-0.5c-0.2-0.1-0.5-0.1-1-0.2h-0.6h-1.9v3h2c0.2,0,0.4,0,0.5,0
				c0.7-0.1,1.2-0.2,1.4-0.4C345.5,155.2,345.7,154.8,345.7,154.4z M347,152.8c0.3,0.4,0.5,0.9,0.5,1.4c0,0.7-0.3,1.4-0.8,1.9
				c-0.5,0.5-1.2,0.9-2.1,0.9c0.4,0.2,0.6,0.3,0.9,0.5l1.5,2l1.2,2h-1.9l-0.9-1.6c-0.6-1-1.1-1.8-1.5-2.1c-0.1-0.1-0.1-0.1-0.2-0.2
				l-1.3-0.4h-1v4.3h-1.6v-10.1h3.5c0.2,0,0.4,0.1,0.6,0.1c0.9,0,1.5,0.1,1.9,0.3C346.2,152,346.6,152.3,347,152.8z"/>
			<path d="M351.5,156.5c0-1.4-0.3-2.7-1-3.9c-0.7-1.2-1.7-2.2-2.9-2.9c-1.2-0.6-2.5-1-3.8-1c-0.1,0-0.1,0-0.1,0
				c-1.3,0-2.6,0.4-3.8,1c-1.2,0.7-2.2,1.7-2.9,2.9c-0.7,1.2-1.1,2.5-1.1,3.9c0,1.3,0.4,2.6,1.1,3.9c0.6,1.2,1.6,2.1,2.8,2.8
				c1.2,0.7,2.5,1,3.9,1c0,0,0,0,0.1,0c1.3,0,2.6-0.3,3.9-1c1.2-0.7,2.2-1.7,2.8-2.8C351.2,159.1,351.5,157.8,351.5,156.5z
				 M353.1,156.5c0,1.6-0.4,3.1-1.2,4.6c-0.8,1.5-1.9,2.6-3.4,3.4c-1.5,0.9-3,1.2-4.6,1.2c-0.1,0-0.1,0-0.1,0
				c-1.6,0-3.1-0.4-4.6-1.2c-1.5-0.8-2.6-1.9-3.4-3.4c-0.9-1.5-1.2-3-1.2-4.6c0-1.7,0.4-3.2,1.2-4.7c0.9-1.5,2-2.6,3.5-3.4
				c1.5-0.8,3-1.2,4.5-1.2c0,0,0,0,0.1,0c1.6,0,3.1,0.4,4.6,1.2c1.5,0.8,2.7,1.9,3.5,3.4C352.7,153.2,353.1,154.8,353.1,156.5z"/>
			<polygon points="262,80.8 306,154 262,154 235.4,154 193.4,84.1 161.6,31.2 193.4,12 213.4,0 			"/>
			<path d="M293.9,204.9v30h-14.6v-3.3c-4.9,3.2-10.8,5.1-17.1,5.1c-0.1,0-0.1,0-0.2,0c-17.4-0.1-31.6-14.3-31.6-31.8
				c0-17.4,14.2-31.7,31.6-31.8c0.1,0,0.1,0,0.2,0c6.3,0,12.2,1.9,17.1,5.1v-3.5h14.6V204.9z M279.3,208.2v-6.6
				c-1.6-8-8.7-14.1-17.1-14.1c-0.1,0-0.1,0-0.2,0c-9.6,0.1-17.3,7.9-17.3,17.4c0,9.6,7.8,17.4,17.3,17.5c0.1,0,0.1,0,0.2,0
				C270.6,222.4,277.7,216.2,279.3,208.2z"/>
			<path d="M225.3,204.9v30h-14.6v-3.3c-5,3.2-10.8,5.1-17.1,5.1c-0.1,0-0.1,0-0.2,0c-17.4-0.1-31.6-14.3-31.6-31.8
				c0-17.4,14.2-31.7,31.6-31.8c0.1,0,0.1,0,0.2,0c6.3,0,12.2,1.9,17.1,5.1V154h14.6V204.9z M210.7,208.2v-6.6
				c-1.6-8-8.7-14.1-17.1-14.1c-0.1,0-0.1,0-0.2,0c-9.6,0.1-17.3,7.9-17.3,17.4c0,9.6,7.8,17.4,17.3,17.5c0.1,0,0.1,0,0.2,0
				C202,222.4,209.1,216.2,210.7,208.2z"/>
			<polygon points="193.4,125.2 210.6,154 193.4,154 140.1,154 100.9,88.9 99.2,86 100.9,85 151.1,54.8 			"/>
			<rect x="140.1" y="173.1" width="15.9" height="61.8"/>
			<rect x="140.1" y="154.4" width="15.9" height="14"/>
			<path d="M132.8,204.9v30h-14.6v-3.3c-5,3.2-10.9,5.1-17.2,5.1c-0.1,0-0.1,0-0.2,0c-17.4-0.1-31.6-14.3-31.6-31.8
				c0-17.4,14.2-31.7,31.6-31.8c0.1,0,0.1,0,0.2,0c6.3,0,12.2,1.9,17.2,5.1V154h14.6V204.9z M118.2,208.2v-6.6
				c-1.6-8-8.7-14.1-17.2-14.1c-0.1,0-0.1,0-0.2,0c-9.6,0.1-17.3,7.9-17.3,17.4c0,9.6,7.8,17.4,17.3,17.5c0.1,0,0.1,0,0.2,0
				C109.6,222.4,116.7,216.2,118.2,208.2z"/>
			<polygon points="100.9,130 115.3,154 100.9,154 44.7,154 36.8,140.8 88.7,109.7 			"/>
			<path d="M63.5,204.9v30H48.9v-3.3c-5,3.2-10.9,5.1-17.2,5.1c-0.1,0-0.1,0-0.2,0C14.2,236.6,0,222.3,0,204.9
				c0-17.4,14.2-31.7,31.6-31.8c0.1,0,0.1,0,0.2,0c6.3,0,12.2,1.9,17.2,5.1v-3.5h14.6V204.9z M48.9,208.2v-6.6
				c-1.6-8-8.7-14.1-17.2-14.1c-0.1,0-0.1,0-0.2,0c-9.5,0.1-17.3,7.9-17.3,17.4c0,9.6,7.8,17.4,17.3,17.5c0.1,0,0.1,0,0.2,0
				C40.3,222.4,47.4,216.2,48.9,208.2z"/>
		</g>
	</g>
</g>
</svg>
