<?xml version="1.0" encoding="utf-8"?>
<!-- Generator: Adobe Illustrator 19.2.0, SVG Export Plug-In . SVG Version: 6.00 Build 0)  -->
<svg version="1.1" id="Layer_1" xmlns="http://www.w3.org/2000/svg" xmlns:xlink="http://www.w3.org/1999/xlink" x="0px" y="0px"
	 viewBox="0 0 1200 131.9" style="enable-background:new 0 0 1200 131.9;" xml:space="preserve">
<style type="text/css">
	.st0{opacity:0.3;}
</style>
<g class="st0">
	<path d="M95.2,4.2v16.7c0,1.1-0.7,1.8-1.8,1.8H21.6v34.2h59.2c1.1,0,1.8,0.7,1.8,1.8v16.7c0,1.1-0.7,1.8-1.8,1.8H21.6v50.5
		c0,1.1-0.7,1.8-1.8,1.8h-18c-1.1,0-1.8-0.7-1.8-1.8V4.2c0-1.1,0.7-1.8,1.8-1.8h91.6C94.5,2.4,95.2,3.1,95.2,4.2z"/>
	<path d="M241.7,129.6h-19.8c-1.1,0-1.8-0.5-2.1-1.6c-2.6-10.4-5.8-21.4-9.4-32.5h-60.8c-3.6,11.1-6.8,22.1-9.4,32.5
		c-0.3,1.1-1,1.6-2.1,1.6H119c-1.3,0-2-0.7-1.6-2C128.8,87,146.3,42.3,163.9,4.7c0.8-1.7,1.8-2.4,3.5-2.4h25.8
		c1.7,0,2.7,0.6,3.5,2.4c17.8,37.5,35,82.3,46.5,122.8C243.7,128.8,242.9,129.6,241.7,129.6z M203.6,75.8
		c-6.6-18.4-14-36.7-21.5-53.4h-4.3c-7.5,16.7-15,35.1-21.6,53.4H203.6z"/>
	<path d="M274.2,67c0-39.4,26-67,63.1-67h2.7c23.3,0,41.2,11.8,50.8,28.9c0.6,1.1,0.5,2-0.6,2.5l-16,7.9c-1.1,0.5-2.5,0.5-3.2-0.8
		c-6.7-11.6-16.8-17.8-31.7-17.8h-2.7c-23.3,0-39.4,18.5-39.4,45.4c0,27,15.8,45.1,39.4,45.1h2.7c15.3,0,24.2-5.2,31-13.1
		c0.9-1,1.9-1.2,3-0.6l16.4,8c0.6,0.4,0.9,0.8,0.9,1.3s-0.2,0.8-0.5,1.4C380,122.9,361.8,132,339.7,132H337
		C299.2,131.9,274.2,106,274.2,67z"/>
	<path d="M535.5,111v16.7c0,1.1-0.7,1.8-1.8,1.8h-95.4c-1.1,0-1.8-0.7-1.8-1.8V4.2c0-1.1,0.7-1.8,1.8-1.8H532c1.1,0,1.8,0.7,1.8,1.8
		v16.7c0,1.1-0.7,1.8-1.8,1.8h-74v33.1h60.1c1.1,0,1.8,0.7,1.8,1.8v16.5c0,1.1-0.7,1.8-1.8,1.8H458v33.3h75.6
		C534.7,109.2,535.5,109.9,535.5,111z"/>
	<path d="M699.7,94.7c0,22.3-17.1,34.9-47.2,34.9H590c-1.1,0-1.8-0.7-1.8-1.8V4.2c0-1.1,0.7-1.8,1.8-1.8h57
		c29.3,0,45.3,11.6,45.3,32.9c0,14-7.1,23.2-21.4,27.4C691,67,699.7,79,699.7,94.7z M646.5,22.2h-36.7v34.2h36.7
		c16.4,0,24-5.4,24-17.1S662.9,22.2,646.5,22.2z M677.6,92.8c0-11.8-7.8-17.2-25-17.2h-42.8v34.2h42.8
		C670,109.7,677.6,104.7,677.6,92.8z"/>
	<path d="M737.8,66c0-38.3,25.4-66,65.4-66h2.7c40,0,65.4,27.6,65.4,66c0,38.3-25.4,66-65.4,66h-2.7
		C763.2,131.9,737.8,104.3,737.8,66z M805.9,111.2c26.1,0,42.5-17.9,42.5-45.2S832,20.8,805.9,20.8h-2.7
		c-26.1,0-42.5,17.9-42.5,45.2s16.4,45.2,42.5,45.2H805.9z"/>
	<path d="M908.2,66c0-38.3,25.4-66,65.4-66h2.7c40,0,65.4,27.6,65.4,66c0,38.3-25.4,66-65.4,66h-2.7
		C933.7,131.9,908.2,104.3,908.2,66z M976.4,111.2c26.1,0,42.5-17.9,42.5-45.2s-16.4-45.2-42.5-45.2h-2.7
		c-26.1,0-42.5,17.9-42.5,45.2s16.4,45.2,42.5,45.2H976.4z"/>
	<path d="M1198.5,129.6h-23.4c-1.5,0-2.2-0.4-3.2-1.5c-16.4-19.4-35.9-38.6-52.4-52.8H1109v52.5c0,1.1-0.7,1.8-1.8,1.8h-18
		c-1.1,0-1.8-0.7-1.8-1.8V4.2c0-1.1,0.7-1.8,1.8-1.8h18c1.1,0,1.8,0.7,1.8,1.8v50.2h10.7c17.7-16,34.1-33.3,47.4-50.6
		c0.9-1.2,1.6-1.4,2.7-1.4h22.2c1.1,0,1.6,0.5,1.6,1.3c0,0.4-0.2,0.8-0.6,1.4c-19.5,24.1-38.9,43.8-56.8,59.1
		c22.5,19.1,43.9,40.3,63.3,63.2C1200.5,128.5,1199.9,129.6,1198.5,129.6z"/>
</g>
</svg>
