<?xml version="1.0" encoding="UTF-8"?>
<svg width="109px" height="36px" viewBox="0 0 109 36" version="1.1" xmlns="http://www.w3.org/2000/svg" xmlns:xlink="http://www.w3.org/1999/xlink">
    <title>google-2015</title>
    <g id="Design" stroke="none" stroke-width="1" fill="none" fill-rule="evenodd" fill-opacity="0.3">
        <g id="About-New" transform="translate(-665.000000, -2457.000000)" fill="#000000" fill-rule="nonzero">
            <g id="google-2015" transform="translate(665.944790, 2457.500000)">
                <path d="M13.2325664,0 L14.1849581,0 C17.4913746,0.0718786196 20.7438821,1.40163308 23.0799372,3.75565787 C22.2173938,4.63617096 21.3368807,5.48074474 20.4923069,6.36125783 C19.1805221,5.17526061 17.5991925,4.25880821 15.8741056,3.93535442 C13.3224146,3.39626478 10.5730574,3.88144546 8.4346685,5.33698751 C6.09861336,6.86440817 4.51728373,9.45203848 4.17586028,12.2193653 C3.79849753,14.9507529 4.57119269,17.8258977 6.35018853,19.9463169 C8.05730574,22.0128273 10.6629057,23.3066424 13.3583539,23.3964907 C15.8741056,23.5402479 18.4976752,22.7675528 20.33058,21.0065266 C21.7681524,19.7666204 22.4330297,17.8798066 22.6486655,16.0469018 C19.6657028,16.0469018 16.6827401,16.0648715 13.6997774,16.0469018 L13.6997774,12.3451529 L26.2605662,12.3451529 C26.9074737,16.3164466 25.9730517,20.7908907 22.9541497,23.6300962 C20.9415483,25.6426975 18.1562518,26.8286948 15.3170463,27.0623003 C12.5676891,27.3318451 9.72848365,26.8107251 7.28461058,25.4809706 C4.35555683,23.9176107 2.0195017,21.2760714 0.869443783,18.1673211 C-0.208735511,15.310146 -0.226705166,12.0756081 0.779595508,9.20046331 C1.69604791,6.57689369 3.45707409,4.25880821 5.72125061,2.64153927 C7.89557885,1.04223998 10.5371181,0.161726894 13.2325664,0 Z" id="Path"></path>
                <path d="M85.2908825,0.934422055 L89.1363887,0.934422055 L89.1363887,26.5950893 C87.8605432,26.5950893 86.566728,26.6130589 85.2908825,26.5771196 C85.3088522,18.0415335 85.2908825,9.48797779 85.2908825,0.934422055 Z" id="Path"></path>
                <path d="M34.8141219,9.82940123 C37.1861163,9.38015986 39.755777,9.8833102 41.7144694,11.3029129 C43.4934652,12.5607888 44.7333714,14.5374508 45.1107341,16.6938094 C45.5959148,19.1915914 44.9849466,21.922979 43.3676776,23.899641 C41.6246211,26.1099086 38.767446,27.2959058 35.9821495,27.1162092 C33.4304585,26.972452 30.9506461,25.6966065 29.4411951,23.6121265 C27.7340779,21.3120107 27.3207758,18.1493514 28.2551979,15.4539032 C29.1896199,12.5607888 31.8311592,10.3505212 34.8141219,9.82940123 M35.3532115,13.2436357 C34.3828502,13.4952108 33.4843674,14.0522701 32.8374599,14.8429349 C31.0944033,16.9274149 31.2022213,20.3236797 33.1249743,22.2644024 C34.2211233,23.378521 35.8743315,23.899641 37.4017522,23.5941569 C38.8213549,23.3425817 40.0612611,22.39019 40.744108,21.1323142 C41.9301052,18.9939252 41.5886818,16.0469018 39.7737466,14.3757239 C38.6057191,13.2975446 36.8986019,12.8483033 35.3532115,13.2436357 Z" id="Shape"></path>
                <path d="M53.8619561,9.82940123 C56.575374,9.30828124 59.540367,10.0630067 61.570938,11.9677902 C64.8773545,14.9327832 65.2367476,20.4854066 62.4155118,23.899641 C60.7083946,26.0559996 57.9410677,27.2419968 55.2096802,27.1162092 C52.6040802,27.0443306 50.0344196,25.7505155 48.4890293,23.6121265 C46.7459727,21.2581017 46.36861,18.0235639 47.356941,15.2742067 C48.345272,12.4709405 50.9329023,10.3325516 53.8619561,9.82940123 M54.4010457,13.2436357 C53.4306844,13.4952108 52.5322016,14.0522701 51.885294,14.8249653 C50.1602072,16.873506 50.2320858,20.2158618 52.0829602,22.1745541 C53.1791092,23.3425817 54.8862264,23.9176107 56.467556,23.5941569 C57.8691891,23.3246121 59.127065,22.39019 59.8099119,21.1323142 C60.9779394,18.9759556 60.636516,16.0289322 58.8036112,14.3577543 C57.6355836,13.279575 55.9284664,12.8483033 54.4010457,13.2436357 Z" id="Shape"></path>
                <path d="M70.0166758,10.8716412 C72.0831862,9.57782606 74.8325434,9.21843296 77.0607806,10.3325516 C77.7615971,10.6380357 78.3366261,11.1591557 78.8936854,11.6802757 C78.911655,11.195095 78.8936854,10.6919447 78.911655,10.1887943 C80.1156219,10.206764 81.3195888,10.1887943 82.5415253,10.206764 L82.5415253,26.0559996 C82.5235557,28.4459637 81.9125874,30.979685 80.1875005,32.7227416 C78.3006867,34.6454946 75.4075723,35.2384933 72.8019723,34.8431609 C70.0166758,34.4298588 67.5907724,32.3992878 66.5125931,29.8296271 C67.5907724,29.3085071 68.7228607,28.8952051 69.8369793,28.4100244 C70.4659172,29.8835361 71.7417627,31.1414119 73.341062,31.4289264 C74.9403613,31.7164409 76.7912357,31.3211085 77.8334757,29.991354 C78.9475943,28.6256603 78.9475943,26.7568161 78.8936854,25.0856382 C78.0670812,25.8942727 77.1146895,26.6130589 75.9646316,26.8826037 C73.4668496,27.5834203 70.7174924,26.7208768 68.7947393,25.0317293 C66.8540166,23.3425817 65.7039587,20.7369818 65.8117766,18.1493514 C65.8656856,15.2202977 67.5188938,12.3990619 70.0166758,10.8716412 M73.7363944,13.171757 C72.6402455,13.3514536 71.6159751,13.9624219 70.9151586,14.8069956 C69.226011,16.819597 69.226011,20.0361652 70.9331282,22.0128273 C71.9034896,23.1808548 73.4668496,23.8277624 74.9763006,23.6660355 C76.3959033,23.5222783 77.7076881,22.6237955 78.4085047,21.3838893 C79.5945019,19.2814397 79.3968357,16.4242646 77.7975364,14.5913598 C76.8092054,13.4592715 75.2278758,12.9022122 73.7363944,13.171757 L73.7363944,13.171757 Z" id="Shape"></path>
                <path d="M93.75459,11.7880936 C95.9109486,9.77549227 99.2353347,9.09264538 102.002662,10.152855 C104.626231,11.141186 106.297409,13.6389681 107.141983,16.2086287 C103.242568,17.8258977 99.3611223,19.4251969 95.4617072,21.0424659 C96.0007968,22.0667362 96.827401,23.0011583 97.9415196,23.378521 C99.5048795,23.9355803 101.373724,23.7379141 102.685508,22.6956741 C103.206628,22.3003417 103.619931,21.7792217 104.015263,21.2760714 C105.003594,21.9409486 105.991925,22.5878562 106.980256,23.2527334 C105.578623,25.3551831 103.224598,26.8286948 100.690877,27.0623003 C97.8876106,27.4037237 94.9046479,26.3255444 93.0897127,24.1332465 C90.10675,20.6830728 90.3942645,14.8968439 93.75459,11.7880936 M95.677343,15.1124798 C95.0663748,15.9929929 94.8147996,17.0711722 94.8327693,18.1313818 C97.4383692,17.0532025 100.043969,15.9750232 102.649569,14.8788743 C102.218297,13.8725736 101.176057,13.2616053 100.115848,13.0998784 C98.4087306,12.7943943 96.6297347,13.7108467 95.677343,15.1124798 L95.677343,15.1124798 Z" id="Shape"></path>
            </g>
        </g>
    </g>
</svg>