<?xml version="1.0" encoding="utf-8"?>
<!-- Generator: Adobe Illustrator 19.2.0, SVG Export Plug-In . SVG Version: 6.00 Build 0)  -->
<svg version="1.1" id="Layer_1" xmlns="http://www.w3.org/2000/svg" xmlns:xlink="http://www.w3.org/1999/xlink" x="0px" y="0px"
	 viewBox="0 0 784.8 212.6" style="enable-background:new 0 0 784.8 212.6;" xml:space="preserve">
<g>
	<path d="M287.3,64c-9.2-15.5-30.8-27.9-52.6-27.9c-48.9,0-88.5,39.5-88.5,88.2s39.6,88.2,88.5,88.2c21.1,0,42.8-12.6,52.6-27.6
		v27.6h35.3V36.1h-35.3V64z M234.4,177.1c-29.2,0-52.9-23.7-52.9-52.9s23.7-52.9,52.9-52.9s52.9,23.7,52.9,52.9
		S263.6,177.1,234.4,177.1z"/>
	<path d="M539.6,36.1c-22.3,0.2-43.6,12.3-52.4,32.3c-8.8-19.4-30.4-32.3-52.9-32.3c-18.7,0-36.4,11.5-44.1,28.6V36.1H355v176.3
		h35.3V107.2c0-19.3,15.2-35.5,34.5-35.9c19.8-0.4,36,15.5,36,35.3v105.8H496V107.2c0-19.3,15.2-35.5,34.5-35.9
		c19.8-0.4,36,15.5,36,35.3v105.8h35.3V98.6C601.8,64.4,573.8,35.8,539.6,36.1z"/>
	<path d="M51,0.9l0.1,35.3H90V131h0c0,25.6-20.5,46.3-46.1,46.3c-7.1,0-13.8-1.6-19.8-4.5l-24,27c12.7,8.1,27.8,12.7,44,12.7
		c45.1,0,81.1-36.3,81.3-81.2h0V0.9H51z"/>
	<g>
		<path d="M761.7,80.9L736,106.6c8.5,8.1,13.4,19.9,12.3,32.8c-1.7,19.2-16.5,34.3-35.7,36.4c-24.2,2.6-44.7-16.3-44.7-40h-36.4
			c0,43.9,37,79.3,81.5,76.5c39.2-2.4,70.2-34.1,71.7-73.4C785.7,116.1,776.7,95.5,761.7,80.9C761.7,80.9,761.7,80.9,761.7,80.9z"/>
		<rect x="630.8" y="1" width="66.7" height="36.4"/>
		<rect x="668.1" y="37.4" transform="matrix(0.7071 -0.7071 0.7071 0.7071 174.0684 531.459)" width="120.9" height="36.4"/>
	</g>
</g>
</svg>
