<?xml version="1.0" encoding="UTF-8"?>
<svg width="92px" height="21px" viewBox="0 0 92 21" version="1.1" xmlns="http://www.w3.org/2000/svg" xmlns:xlink="http://www.w3.org/1999/xlink">
    <title>ueno-design-logo-vector</title>
    <g id="Design" stroke="none" stroke-width="1" fill="none" fill-rule="evenodd">
        <g id="About-New" transform="translate(-674.000000, -2244.000000)" fill="#000000" fill-rule="nonzero">
            <g id="ueno-design-logo-vector" transform="translate(674.651951, 2244.000000)">
                <path d="M48.266129,20.2209677 L42.8467742,20.2209677 L42.8467742,0.575806452 L48.266129,0.575806452 L48.266129,3.82741935 C49.2145161,1.62580645 51.8225806,0 54.6677419,0 C59.9516129,0 61.8483871,3.52258065 61.8483871,7.99354839 L61.8483871,20.3225806 L56.4290323,20.3225806 L56.4290323,9.07741935 C56.4290323,6.09677419 55.2096774,4.33548387 52.6354839,4.33548387 C49.9258065,4.33548387 48.1645161,6.50322581 48.1645161,9.75483871 L48.266129,20.2209677 Z M74.1774194,20.7629032 C68.0806452,20.7629032 63.8806452,16.5629032 63.8806452,10.466129 C63.8806452,4.36935484 68.216129,0.0338709677 74.1774194,0.0338709677 C80.2741935,0.0338709677 84.6096774,4.36935484 84.6096774,10.466129 C84.6096774,16.5629032 80.4096774,20.7629032 74.1774194,20.7629032 Z M74.1774194,16.6983871 C77.4290323,16.6983871 79.1903226,14.1241935 79.1903226,10.466129 C79.1903226,6.67258065 77.4290323,4.0983871 74.1774194,4.0983871 C70.9258065,4.0983871 69.1645161,6.67258065 69.1645161,10.466129 C69.3,14.1241935 70.9258065,16.6983871 74.1774194,16.6983871 Z M13.5822581,0.541935484 L19.0016129,0.541935484 L19.0016129,20.1870968 L13.5822581,20.1870968 L13.5822581,16.9354839 C12.633871,19.1032258 10.0596774,20.7290323 7.21451613,20.7290323 C1.93064516,20.7290323 0.0338709677,17.2064516 0.0338709677,12.7354839 L0.0338709677,0.541935484 L5.45322581,0.541935484 L5.45322581,11.7870968 C5.31774194,14.7677419 6.4016129,16.5290323 9.11129032,16.5290323 C11.8209677,16.5290323 13.5822581,14.3612903 13.5822581,11.1096774 L13.5822581,0.541935484 Z M35.8016129,14.666129 C34.9887097,16.0209677 33.4983871,16.6983871 31.466129,16.6983871 C28.6209677,16.6983871 26.3177419,14.666129 26.0467742,11.6854839 L40.8145161,11.6854839 L40.8145161,9.78870968 C40.8145161,4.36935484 37.5629032,0.0338709677 31.0596774,0.0338709677 C25.233871,0.0338709677 20.7629032,4.50483871 20.7629032,10.7370968 C20.7629032,16.9693548 25.0983871,20.7629032 31.1951613,20.7629032 C34.9887097,20.7629032 37.9693548,19.2725806 39.5951613,16.5629032 C39.5951613,16.5629032 35.8016129,14.666129 35.8016129,14.666129 Z M31.0596774,3.92903226 C34.0403226,3.92903226 35.3951613,6.09677419 35.666129,8.4 L26.1822581,8.4 C26.7241935,5.96129032 28.2145161,3.92903226 31.0596774,3.92903226 Z M87.5903226,20.6274194 C86.1,20.6274194 84.8806452,19.4080645 84.8806452,17.9177419 L84.8806452,17.7822581 C84.8806452,16.2919355 86.1,15.0725806 87.5903226,15.0725806 C89.0806452,15.0725806 90.3,16.2919355 90.3,17.7822581 L90.3,17.9177419 C90.3,19.4080645 89.0806452,20.6274194 87.5903226,20.6274194 Z" id="Shape"></path>
            </g>
        </g>
    </g>
</svg>