<?xml version="1.0" encoding="UTF-8"?>
<svg width="59px" height="24px" viewBox="0 0 59 24" version="1.1" xmlns="http://www.w3.org/2000/svg" xmlns:xlink="http://www.w3.org/1999/xlink">
    <!-- Generator: Sketch 53.2 (72643) - https://sketchapp.com -->
    <title>Shape</title>
    <desc>Created with Sketch.</desc>
    <g id="Design" stroke="none" stroke-width="1" fill="none" fill-rule="evenodd">
        <g id="About-New-Copy" transform="translate(-691.000000, -2463.000000)" fill="#111111" fill-rule="nonzero">
            <g id="logo.img-48e985c622935211ece1df8907bfe254" transform="translate(690.079308, 2463.000000)">
                <path d="M29.1145565,7.89123598 L33.1283265,7.89123598 L33.1283265,23.1817883 L29.1145565,23.1817883 L29.1145565,7.89123598 Z M36.7118601,1.77501505 L40.7734131,1.77501505 L40.7734131,23.1817883 L36.7118601,23.1817883 L36.7118601,1.77501505 Z M55.3524965,1.77501505 L55.3524965,9.94590395 C54.7791008,9.22915931 54.0623562,8.65576359 53.2978286,8.22571681 C53.1544797,8.17793383 53.0111307,8.08236788 52.9155648,8.03458491 C52.7722158,7.98680193 52.6288669,7.89123598 52.485518,7.843453 L52.437735,7.843453 C52.2466031,7.79567003 52.0554712,7.70010407 51.8165563,7.6523211 C51.3387266,7.55675515 50.9086798,7.50897217 50.43085,7.50897217 L50.2397181,7.50897217 C49.2840586,7.50897217 48.423965,7.70010407 47.5638715,8.03458491 C46.7037779,8.36906574 45.9870333,8.89467847 45.3658546,9.61142311 C44.7446759,10.2803848 44.2190631,11.1404783 43.8845823,12.1439208 C43.5023185,13.1473633 43.3111866,14.2941548 43.3111866,15.5842951 C43.3111866,16.8744355 43.5023185,18.0212269 43.8845823,19.0246694 C44.2668461,20.0281119 44.7446759,20.8882054 45.4136375,21.5571671 C46.0348162,22.2261288 46.7993438,22.7517415 47.6116544,23.1340053 C48.423965,23.4684861 49.3318416,23.6596181 50.2875011,23.6596181 L50.383067,23.6596181 C50.6697649,23.6596181 51.0042457,23.6118351 51.2909436,23.5640521 C52.0076882,23.4684861 52.6766499,23.2773542 53.2500456,22.9428734 C53.5845264,22.7517415 53.9190073,22.5128266 54.2057051,22.2739117 C54.2534881,22.2739117 54.2534881,22.2261288 54.3012711,22.2261288 C54.3490541,22.1783458 54.44462,22.1305628 54.492403,22.0349969 C54.7791008,21.796082 55.0657987,21.5093841 55.3524965,21.1749033 L55.6391944,23.2295713 L59.3662665,23.2295713 L59.3662665,1.77501505 L55.3524965,1.77501505 Z M54.3490541,18.6901886 C53.5367435,19.4547162 52.533301,19.83698 51.3387266,19.83698 C50.7653309,19.83698 50.1919351,19.741414 49.6663224,19.5502821 C49.1407097,19.3591502 48.7106629,19.0724524 48.3283991,18.6901886 C47.9461353,18.3079247 47.6594374,17.877878 47.4683055,17.3522652 C47.2771736,16.8266525 47.1338247,16.2532568 47.1338247,15.5842951 C47.1338247,14.9631164 47.2293906,14.3419377 47.4683055,13.816325 C47.6594374,13.2907123 47.9939182,12.8128825 48.3283991,12.4784017 C48.7106629,12.0961379 49.1407097,11.80944 49.6663224,11.6183081 C50.1919351,11.4271762 50.7175479,11.3316102 51.3387266,11.3316102 C52.533301,11.3316102 53.5367435,11.7138741 54.3490541,12.4784017 C55.1613646,13.2429293 55.5436285,14.2941548 55.5436285,15.6320781 C55.5436285,16.8744355 55.1613646,17.9256609 54.3490541,18.6901886 Z M31.1214415,0.341525773 C29.7357352,0.341525773 28.6845097,1.39275124 28.6845097,2.82624052 C28.6845097,4.21194683 29.7357352,5.2631723 31.1214415,5.2631723 C32.5549308,5.2631723 33.6061563,4.21194683 33.6061563,2.82624052 C33.6061563,1.44053422 32.5071478,0.341525773 31.1214415,0.341525773 Z M19.7023469,16.0143419 L19.2723001,18.1645758 L18.8900363,16.2054738 L15.5930109,7.89123598 L12.3437686,7.89123598 L9.09452619,16.2054738 L8.71226238,18.1645758 L8.2822156,16.0621249 L5.27188811,7.89123598 L0.875854321,7.89123598 L7.0876412,23.1817883 L10.1457517,23.1817883 L14.0161727,14.1030229 L17.8388108,23.1817883 L20.8969213,23.1817883 L27.0609252,7.89123598 L22.6648914,7.89123598 L19.7023469,16.0143419 Z" id="Shape"></path>
            </g>
        </g>
    </g>
</svg>